<svg width="42" height="41" viewBox="0 0 42 41" fill="none" xmlns="http://www.w3.org/2000/svg">
<path id="Arrow 9" d="M27.5648 7.5658L28.7492 6.64535L27.5648 7.5658ZM26.1622 39.6919C26.4556 40.4666 27.3215 40.8567 28.0962 40.5633L40.7209 35.7813C41.4956 35.4878 41.8858 34.6219 41.5923 33.8472C41.2989 33.0725 40.433 32.6824 39.6583 32.9758L28.4363 37.2265L24.1857 26.0045C23.8922 25.2298 23.0263 24.8397 22.2516 25.1331C21.4769 25.4266 21.0867 26.2925 21.3802 27.0672L26.1622 39.6919ZM0.729041 5.82193C1.35958 7.18297 1.35924 7.18313 1.35896 7.18326C1.35897 7.18325 1.35876 7.18335 1.35877 7.18334C1.35879 7.18334 1.35908 7.1832 1.35966 7.18294C1.36081 7.18241 1.36308 7.18136 1.36646 7.17982C1.37322 7.17673 1.3844 7.17163 1.3999 7.16464C1.43089 7.15066 1.47912 7.12909 1.5437 7.10078C1.67289 7.04414 1.86734 6.96058 2.11993 6.85681C2.62538 6.64914 3.36201 6.3612 4.273 6.04632C6.10008 5.4148 8.60335 4.68373 11.3349 4.268C16.9035 3.42048 22.8573 3.95287 26.3805 8.48626L28.7492 6.64535C24.1717 0.755301 16.7076 0.415757 10.8835 1.30216C7.91867 1.75339 5.23186 2.54075 3.29296 3.21092C2.32096 3.54688 1.53062 3.8556 0.979849 4.08188C0.704326 4.19508 0.488352 4.28781 0.339141 4.35323C0.264525 4.38594 0.206567 4.41184 0.166168 4.43006C0.145969 4.43918 0.130157 4.44638 0.118842 4.45155C0.113185 4.45414 0.108652 4.45622 0.105256 4.45778C0.103559 4.45856 0.102147 4.45921 0.101021 4.45973C0.100457 4.45999 0.0998283 4.46028 0.0995454 4.46041C0.0989893 4.46067 0.0985025 4.4609 0.729041 5.82193ZM26.3805 8.48626C30.4838 13.7662 30.5731 21.1168 29.4664 27.4532C28.9203 30.5802 28.0992 33.3642 27.413 35.3685C27.0704 36.369 26.7629 37.171 26.5426 37.7194C26.4325 37.9934 26.3443 38.2039 26.2845 38.3437C26.2547 38.4137 26.2319 38.4659 26.2171 38.4996C26.2097 38.5165 26.2043 38.5287 26.2009 38.5362C26.1993 38.54 26.1981 38.5425 26.1975 38.5439C26.1972 38.5446 26.197 38.545 26.197 38.545C26.197 38.5451 26.1971 38.5449 26.1971 38.5449C26.1972 38.5447 26.1973 38.5444 27.5649 39.1605C28.9325 39.7767 28.9327 39.7763 28.933 39.7757C28.9331 39.7754 28.9334 39.7748 28.9336 39.7742C28.9341 39.7731 28.9348 39.7716 28.9356 39.7699C28.9371 39.7664 28.9392 39.7617 28.9419 39.7558C28.9471 39.7439 28.9545 39.7273 28.9639 39.706C28.9826 39.6633 29.0093 39.6019 29.0433 39.5225C29.1111 39.3637 29.2077 39.1331 29.3264 38.8377C29.5637 38.247 29.8898 37.3959 30.2512 36.3403C30.9729 34.2323 31.8414 31.2917 32.4217 27.9693C33.5678 21.4071 33.657 12.9603 28.7492 6.64535L26.3805 8.48626Z" fill="#FAFF00"/>
</svg>
