<svg width="20" height="20" viewBox="0 0 20 20" fill="none" xmlns="http://www.w3.org/2000/svg">
<path d="M12.4996 0C8.35786 0 4.99984 3.35802 4.99984 7.49977C4.99984 8.76598 5.31671 9.95782 5.87169 11.0047L0.656855 16.2182L0.661229 16.222C0.253742 16.6226 0 17.1776 0 17.7944C0 19.0125 0.987469 20 2.20556 20C2.82116 20 3.37677 19.7463 3.77738 19.3381L3.77613 19.3369L8.98909 14.1246C10.0366 14.6814 11.2303 14.9995 12.4996 14.9995C16.6414 14.9995 19.9994 11.6415 19.9994 7.49977C19.9994 3.35802 16.6414 0 12.4996 0ZM2.99678 18.5569C2.79554 18.7657 2.5168 18.8963 2.20556 18.8963C1.5962 18.8963 1.10247 18.4032 1.10247 17.7938C1.10247 17.4826 1.23371 17.2045 1.44183 17.0026L1.43621 16.9976L6.4773 11.9565C6.91791 12.5509 7.44289 13.0758 8.036 13.5177L2.99678 18.5569ZM12.4996 13.7502C9.04847 13.7502 6.24981 10.9509 6.24981 7.50039C6.24981 4.04925 9.04847 1.25059 12.4996 1.25059C15.9501 1.25059 18.7494 4.04925 18.7494 7.50039C18.7494 10.9509 15.9501 13.7502 12.4996 13.7502Z" fill="#333333"/>
<path d="M12.4989 3.125C10.0821 3.125 8.12402 5.08369 8.12402 7.49986C8.12402 7.67236 8.26402 7.81235 8.43651 7.81235C8.60901 7.81235 8.749 7.67236 8.749 7.49986C8.749 5.4293 10.4277 3.74998 12.4989 3.74998C12.6708 3.74998 12.8114 3.60998 12.8114 3.43749C12.8114 3.265 12.6708 3.125 12.4989 3.125Z" fill="#333333"/>
</svg>
