<svg width="22" height="21" viewBox="0 0 22 21" fill="none" xmlns="http://www.w3.org/2000/svg">
<path id="Star 3" d="M10.1288 0.799237C10.5114 0.120592 11.4886 0.120592 11.8712 0.799237L14.5841 5.61252C14.7268 5.8657 14.9726 6.04427 15.2575 6.10175L20.6735 7.19455C21.4372 7.34863 21.7392 8.27808 21.2119 8.85158L17.4726 12.9192C17.2759 13.1331 17.182 13.422 17.2154 13.7107L17.8497 19.1994C17.9392 19.9733 17.1485 20.5477 16.4402 20.2235L11.4162 17.9241C11.1519 17.8032 10.8481 17.8032 10.5838 17.9241L5.55982 20.2235C4.85146 20.5477 4.06083 19.9733 4.15027 19.1994L4.78461 13.7107C4.81797 13.422 4.72409 13.1331 4.52741 12.9192L0.788051 8.85158C0.260825 8.27808 0.562819 7.34863 1.32645 7.19455L6.74251 6.10175C7.0274 6.04427 7.27318 5.8657 7.41588 5.61253L10.1288 0.799237Z" fill="white"/>
</svg>
