<svg width="107" height="102" viewBox="0 0 107 102" fill="none" xmlns="http://www.w3.org/2000/svg">
<path d="M50.9578 1.57964C51.9977 -0.526546 55.0023 -0.526547 56.0422 1.57964L70.3784 30.6163C70.7913 31.4527 71.5895 32.0324 72.5129 32.1665L104.57 36.8228C106.895 37.1605 107.823 40.0169 106.141 41.6563L82.9443 64.2582C82.2762 64.9092 81.9713 65.8472 82.129 66.7665L87.6049 98.6809C88.0021 100.996 85.5714 102.761 83.4916 101.668L54.8192 86.6002C53.9933 86.1662 53.0067 86.1662 52.1808 86.6002L23.5084 101.668C21.4286 102.761 18.9979 100.996 19.3951 98.6809L24.871 66.7665C25.0287 65.8472 24.7238 64.9092 24.0557 64.2582L0.859207 41.6563C-0.823359 40.0169 0.105101 37.1605 2.43035 36.8228L34.4871 32.1665C35.4105 32.0324 36.2087 31.4527 36.6216 30.6163L50.9578 1.57964Z" fill="white"/>
</svg>
