<svg width="21" height="20" viewBox="0 0 21 20" fill="none" xmlns="http://www.w3.org/2000/svg">
<path d="M16.1997 20C17.0392 20 17.7197 19.3194 17.7197 18.48C17.7197 17.6405 17.0392 16.96 16.1997 16.96C15.3602 16.96 14.6797 17.6405 14.6797 18.48C14.6797 19.3194 15.3602 20 16.1997 20Z" fill="white"/>
<path d="M8.60008 20C9.43955 20 10.1201 19.3194 10.1201 18.48C10.1201 17.6405 9.43955 16.96 8.60008 16.96C7.76061 16.96 7.08008 17.6405 7.08008 18.48C7.08008 19.3194 7.76061 20 8.60008 20Z" fill="white"/>
<path d="M1 1.76001H2.42728C2.93268 1.76001 3.37804 2.09289 3.52092 2.57853L6.75928 13.5894C6.94928 14.2354 7.54284 14.68 8.21696 14.68H16.5587C17.2442 14.68 17.8446 14.221 18.0255 13.5598L20 6.32001H16.2" stroke="white" stroke-width="2" stroke-miterlimit="10" stroke-linecap="round" stroke-linejoin="round"/>
<path d="M13.1598 6.31995V10.5653L14.9025 8.82263C15.1996 8.52547 15.68 8.52547 15.9771 8.82263C16.2743 9.11979 16.2743 9.60011 15.9771 9.89727L12.9371 12.9373C12.7889 13.0855 12.5944 13.1599 12.3998 13.1599C12.2052 13.1599 12.0107 13.0855 11.8625 12.9373L8.82248 9.89727C8.52532 9.60011 8.52532 9.11979 8.82248 8.82263C9.11964 8.52547 9.59996 8.52547 9.89712 8.82263L11.6398 10.5653V6.31995H4.7998L7.4598 14.6799H17.7198L19.9998 6.31995H13.1598Z" fill="white"/>
<path d="M13.1596 1.76C13.1596 1.34048 12.8192 1 12.3996 1C11.9801 1 11.6396 1.34048 11.6396 1.76V5.56H13.1596V1.76Z" fill="white"/>
<path d="M13.1602 6.31995H16.9602" stroke="white" stroke-width="2" stroke-miterlimit="10" stroke-linejoin="round"/>
<path d="M4.7998 6.31995H11.6398" stroke="white" stroke-width="2" stroke-miterlimit="10" stroke-linejoin="round"/>
</svg>
