<svg width="24" height="23" viewBox="0 0 24 23" fill="none" xmlns="http://www.w3.org/2000/svg">
<g id="Group 3">
<g id="icons">
<g id="user">
<path id="Vector" d="M11.5195 13.8C14.6952 13.8 17.2695 10.7108 17.2695 6.9C17.2695 3.08924 14.6952 0 11.5195 0C8.34389 0 5.76953 3.08924 5.76953 6.9C5.76953 10.7108 8.34389 13.8 11.5195 13.8Z" fill="black"/>
<path id="Vector_2" d="M22.7882 19.6651C21.7532 17.5951 19.7982 15.8701 17.2682 14.8351C16.5782 14.6051 15.7732 14.6051 15.1982 14.9501C14.0482 15.6401 12.8982 15.9851 11.5182 15.9851C10.1382 15.9851 8.98822 15.6401 7.83822 14.9501C7.26322 14.7201 6.45822 14.6051 5.76822 14.9501C3.23822 15.9851 1.28322 17.7101 0.248218 19.7801C-0.556782 21.2751 0.708218 23.0001 2.43322 23.0001H20.6032C22.3282 23.0001 23.5932 21.2751 22.7882 19.6651Z" fill="black"/>
</g>
</g>
</g>
</svg>
