<svg width="20" height="12" viewBox="0 0 20 12" fill="none" xmlns="http://www.w3.org/2000/svg">
<g id="Group 20">
<path id="Vector" d="M19.4899 11.3737C18.7931 11.8101 15.9587 11.94 15.2727 11.4415C14.8964 11.1682 14.5523 10.8261 14.2253 10.5007C13.997 10.273 13.7372 10.1624 13.5409 9.91537C13.381 9.71299 13.271 9.47449 13.102 9.27542C12.8172 8.94042 12.3782 8.6556 12.0308 9.06477C11.5083 9.6799 12.1132 10.8892 11.4162 11.3491C11.1824 11.5035 10.9467 11.5482 10.6547 11.5261L10.0078 11.5556C9.62762 11.5631 9.02572 11.5664 8.59367 11.4884C8.11116 11.4015 7.71329 11.1379 7.27765 10.9444C6.44994 10.5774 5.6611 10.0772 5.06113 9.38433C3.42831 7.49757 1.23495 4.90248 0.382971 2.53018C0.207336 2.0427 -0.255048 1.07795 0.183624 0.659684C0.780285 0.226251 3.70982 0.103555 4.16642 0.774384C4.35225 1.04652 4.46916 1.44604 4.6004 1.75457C4.76363 2.13948 4.85241 2.5026 5.10773 2.8434C5.33382 3.14586 5.50091 3.44971 5.67599 3.7814C5.87258 4.15335 6.05786 4.51013 6.29691 4.85285C6.45904 5.08584 6.88778 5.54877 7.15854 5.58351C7.81972 5.66816 7.77836 4.06126 7.72928 3.66863C7.68241 3.29062 7.67 2.88972 7.68241 2.50619C7.69316 2.17918 7.72267 1.71845 7.52883 1.45128C7.21313 1.01564 6.51004 1.34182 6.4549 0.756462C6.57125 0.590202 6.54644 0.442692 7.32232 0.187374C7.93304 -0.0136266 8.3276 -0.00728519 8.73043 0.0249742C9.55208 0.0908715 10.4231 -0.131635 11.2158 0.134711C11.9729 0.389753 11.856 1.46589 11.8306 2.11108C11.7967 2.99201 11.8328 3.85143 11.8306 4.74504C11.8295 5.15228 11.8135 5.54794 12.3093 5.51513C12.7747 5.48398 12.8219 5.09273 13.0438 4.76958C13.3529 4.31933 13.6361 3.86301 13.9507 3.41414C14.3744 2.80783 14.5021 2.12652 14.9011 1.50532C15.0439 1.28281 15.1666 0.797269 15.3863 0.621635C15.5529 0.489013 15.8688 0.545811 16.0701 0.545811H16.5488C16.9155 0.550223 17.2894 0.555462 17.6657 0.568696C18.2081 0.587445 18.8155 0.469712 19.3534 0.545536C21.6739 0.873092 16.4368 5.8369 16.7092 6.72252C16.8978 7.33406 18.0923 8.01923 18.5235 8.52049C19.0984 9.18719 20.8605 10.5159 19.4899 11.3737Z" fill="white"/>
</g>
</svg>
